{"title":"Tim McGraw - Lookin' For That Girl [Music Video] 720p [Sbyky]","uid":11426279,"size":54037791,"categoryP":"video","categoryS":"music_videos","magnet":"?xt=urn:btih:83dc7c70a786e73a73001ab7229f2f9f52b42987&amp;dn=Tim+McGraw+-+Lookin%27+For+That+Girl+%5BMusic+Video%5D+720p+%5BSbyky%5D&amp;tr=udp%3A%2F%2Ftracker.openbittorrent.com%3A80&amp;tr=udp%3A%2F%2Fopen.demonii.com%3A1337&amp;tr=udp%3A%2F%2Ftracker.coppersurfer.tk%3A6969&amp;tr=udp%3A%2F%2Fexodus.desync.com%3A6969","seeders":1,"leechers":1,"uploader":"Sbyky","files":1,"time":1415669242,"description":"General\nComplete name                            : Tim McGraw - Lookin' For That Girl [Music Video] 720p [Sbyky].MP4\nFormat                                   : MPEG-4\nFormat profile                           : Base Media\nCodec ID                                 : isom\nFile size                                : 51.5 MiB\nDuration                                 : 3mn 27s\nOverall bit rate mode                    : Variable\nOverall bit rate                         : 2 086 Kbps\nEncoded date                             : UTC 2014-03-11 01:27:09\nTagged date                              : UTC 2014-03-11 01:27:09\n\nVideo\nID                                       : 1\nFormat                                   : AVC\nFormat/Info                              : Advanced Video Codec\nFormat profile                           : &lt;a class=&quot;__cf_email__&quot; href=&quot;/cdn-cgi/l/email-protection&quot; data-cfemail=&quot;a5e8c4cccbe5e9968b94&quot;&gt;[email&amp;#160;protected]&lt;/a&gt;&lt;script cf-hash='f9e31' type=&quot;text/javascript&quot;&gt;\n/* &lt;![CDATA[ */!function(){try{var t=&quot;currentScript&quot;in document?document.currentScript:function(){for(var t=document.getElementsByTagName(&quot;script&quot;),e=t.length;e--;)if(t[e].getAttribute(&quot;cf-hash&quot;))return t[e]}();if(t&amp;&amp;t.previousSibling){var e,r,n,i,c=t.previousSibling,a=c.getAttribute(&quot;data-cfemail&quot;);if(a){for(e=&quot;&quot;,r=parseInt(a.substr(0,2),16),n=2;a.length-n;n+=2)i=parseInt(a.substr(n,2),16)^r,e+=String.fromCharCode(i);e=document.createTextNode(e),c.parentNode.replaceChild(e,c)}}}catch(u){}}();/* ]]&gt; */&lt;/script&gt;\nFormat settings, CABAC                   : Yes\nFormat settings, ReFrames                : 3 frames\nCodec ID                                 : avc1\nCodec ID/Info                            : Advanced Video Coding\nDuration                                 : 3mn 27s\nBit rate                                 : 1 958 Kbps\nWidth                                    : 1 280 pixels\nHeight                                   : 720 pixels\nDisplay aspect ratio                     : 16:9\nFrame rate mode                          : Variable\nFrame rate                               : 23.976 fps\nMinimum frame rate                       : 23.974 fps\nMaximum frame rate                       : 24.148 fps\nColor space                              : YUV\nChroma subsampling                       : 4:2:0\nBit depth                                : 8 bits\nScan type                                : Progressive\nBits/(Pixel*Frame)                       : 0.089\nStream size                              : 48.3 MiB (94%)\nEncoded date                             : UTC 2014-03-11 01:27:09\nTagged date                              : UTC 2014-03-11 01:27:09\n\nAudio\nID                                       : 2\nFormat                                   : AAC\nFormat/Info                              : Advanced Audio Codec\nFormat profile                           : LC\nCodec ID                                 : 40\nDuration                                 : 3mn 27s\nBit rate mode                            : Variable\nBit rate                                 : 126 Kbps\nChannel(s)                               : 2 channels\nChannel positions                        : Front: L R\nSampling rate                            : 44.1 KHz\nCompression mode                         : Lossy\nStream size                              : 3.10 MiB (6%)\nEncoded date                             : UTC 2014-03-11 01:26:51\nTagged date                              : UTC 2014-03-11 01:26:51\n\nShared By Sbyky","torrent":{"xt":"urn:btih:83dc7c70a786e73a73001ab7229f2f9f52b42987","amp;dn":"Tim+McGraw+-+Lookin%27+For+That+Girl+%5BMusic+Video%5D+720p+%5BSbyky%5D","amp;tr":["udp%3A%2F%2Ftracker.openbittorrent.com%3A80","udp%3A%2F%2Fopen.demonii.com%3A1337","udp%3A%2F%2Ftracker.coppersurfer.tk%3A6969","udp%3A%2F%2Fexodus.desync.com%3A6969"],"infoHash":"83dc7c70a786e73a73001ab7229f2f9f52b42987","infoHashBuffer":{"type":"Buffer","data":[131,220,124,112,167,134,231,58,115,0,26,183,34,159,47,159,82,180,41,135]},"announce":[],"urlList":[]}}